# xmcd
#
# Track frame offsets:
#	150
#	17897
#	32357
#	47910
#	60177
#	72815
#	89252
#	101867
#	119255
#	132910
#	147400
#	162107
#
# Disc length: 2329 seconds
#
# Revision: 0
# Processed by: cddbd v1.5.2PL0 Copyright (c) Steve Scherf et al.
# Submitted via: EasyCDDAExtractor 11.9.9.666
#
DISCID=9d09170c
DTITLE=Banda Amil - A Mil no Arrasta-pé
DYEAR=1900
DGENRE=
TTITLE0=Domingo
TTITLE1=Mau costume
TTITLE2=Amil no Arrasta-pé
TTITLE3=Diga que me quer
TTITLE4=Esqueça-me
TTITLE5=Linda garota
TTITLE6=Doce da vida
TTITLE7=Rosa branca
TTITLE8=Deise
TTITLE9=Ilusão
TTITLE10=Mulher sensual
TTITLE11=Meu anjo
EXTD=
EXTT0=
EXTT1=
EXTT2=
EXTT3=
EXTT4=
EXTT5=
EXTT6=
EXTT7=
EXTT8=
EXTT9=
EXTT10=
EXTT11=
PLAYORDER=
